<?xml version="1.0" encoding="UTF-8" standalone="no"?>
<svg
   xmlns:dc="http://purl.org/dc/elements/1.1/"
   xmlns:cc="http://creativecommons.org/ns#"
   xmlns:rdf="http://www.w3.org/1999/02/22-rdf-syntax-ns#"
   xmlns:svg="http://www.w3.org/2000/svg"
   xmlns="http://www.w3.org/2000/svg"
   xmlns:sodipodi="http://sodipodi.sourceforge.net/DTD/sodipodi-0.dtd"
   xmlns:inkscape="http://www.inkscape.org/namespaces/inkscape"
   version="1.1"
   width="256"
   height="256"
   xml:space="preserve"
   id="svg2"
   inkscape:version="0.48.4 r9939"
   sodipodi:docname="HaxePunk.svg"><metadata
     id="metadata22"><rdf:RDF><cc:Work
         rdf:about=""><dc:format>image/svg+xml</dc:format><dc:type
           rdf:resource="http://purl.org/dc/dcmitype/StillImage" /></cc:Work></rdf:RDF></metadata><defs
     id="defs20" /><sodipodi:namedview
     pagecolor="#ffffff"
     bordercolor="#666666"
     borderopacity="1"
     objecttolerance="10"
     gridtolerance="10"
     guidetolerance="10"
     inkscape:pageopacity="0"
     inkscape:pageshadow="2"
     inkscape:window-width="1680"
     inkscape:window-height="1026"
     id="namedview18"
     showgrid="false"
     inkscape:zoom="2.6074563"
     inkscape:cx="116.79706"
     inkscape:cy="147.71227"
     inkscape:window-x="1440"
     inkscape:window-y="24"
     inkscape:window-maximized="1"
     inkscape:current-layer="svg2" /><path
     style="fill:#f2f2f2;fill-opacity:1;stroke:#000000;stroke-width:2.62683249px;stroke-linecap:butt;stroke-linejoin:miter;stroke-opacity:1"
     d="m 60.541756,183.88057 34.777269,48.64502 63.923915,0.38302 37.75816,-48.64502 -60.943,-162.022371 -16.5606,0.383051 z"
     id="path3098"
     inkscape:connector-curvature="0" /><path
     style="fill:#de532c;fill-opacity:1;stroke:#000000;stroke-width:2.62683249px;stroke-linecap:butt;stroke-linejoin:miter;stroke-opacity:1"
     d="m 151.52806,63.001239 93.40179,127.166481 0,18.3855 -15.89819,0 -2.31848,-4.59638 -45.70725,0 16.5606,-18.38551 -44.0512,-121.420995 z"
     id="path3100"
     inkscape:connector-curvature="0" /><path
     style="fill:#de532c;fill-opacity:1;stroke:#000000;stroke-width:2.62683249px;stroke-linecap:butt;stroke-linejoin:miter;stroke-opacity:1"
     d="M 105.82081,59.553952 10.1005,190.93376 9.7692956,207.0211 l 19.5415114,1.91517 -0.662433,-6.51155 45.044842,0.38302 -12.917255,-17.61943 z"
     id="path3102"
     inkscape:connector-curvature="0" /><path
     style="fill:#4a3c55;fill-opacity:1;stroke:#4a3c55;stroke-width:0.25185776;stroke-opacity:1"
     d="m 108.87893,114.4919 c 0.75154,-2.78525 15.6231,-54.505886 15.69892,-54.598061 0.0547,-0.06667 1.33752,-0.172034 2.85069,-0.234464 l 2.7512,-0.113276 3.08705,10.932681 c 3.67363,13.010081 8.40035,30.057 10.58939,38.19061 l 1.57744,5.86119 -6.34512,0.16017 c -3.48983,0.0881 -11.7498,0.2096 -18.35549,0.27033 l -12.01036,0.11017 0.15633,-0.57912 0,0 z"
     id="path3882"
     inkscape:connector-curvature="0" /></svg>